<svg width="33" height="32" viewBox="0 0 33 32" fill="none" xmlns="http://www.w3.org/2000/svg">
<path d="M13.5 22C15.7091 22 17.5 20.2091 17.5 18C17.5 15.7909 15.7091 14 13.5 14C11.2909 14 9.5 15.7909 9.5 18C9.5 20.2091 11.2909 22 13.5 22Z" stroke="#7F56D9" stroke-width="2" stroke-linecap="round" stroke-linejoin="round"/>
<path d="M7.175 26C7.74261 24.8029 8.63827 23.7915 9.7579 23.0833C10.8775 22.375 12.1752 21.9991 13.5 21.9991C14.8248 21.9991 16.1225 22.375 17.2421 23.0833C18.3617 23.7915 19.2574 24.8029 19.825 26H27.5C27.7652 26 28.0196 25.8946 28.2071 25.7071C28.3946 25.5196 28.5 25.2652 28.5 25V7C28.5 6.73478 28.3946 6.48043 28.2071 6.29289C28.0196 6.10536 27.7652 6 27.5 6H5.5C5.23478 6 4.98043 6.10536 4.79289 6.29289C4.60536 6.48043 4.5 6.73478 4.5 7V25C4.5 25.2652 4.60536 25.5196 4.79289 25.7071C4.98043 25.8946 5.23478 26 5.5 26H7.175Z" stroke="#7F56D9" stroke-width="2" stroke-linecap="round" stroke-linejoin="round"/>
<path d="M22.5 22H24.5V10H8.5V12" stroke="#7F56D9" stroke-width="2" stroke-linecap="round" stroke-linejoin="round"/>
</svg>
